<svg id="Layer_1" data-name="Layer 1" xmlns="http://www.w3.org/2000/svg" viewBox="0 0 250 32"><title>brandymelville_logo</title><path d="M22,14.86a5.21,5.21,0,0,1,1.55,1.65A4.71,4.71,0,0,1,24.12,19a5,5,0,0,1-.65,2.58,5.57,5.57,0,0,1-1.68,1.8,7.7,7.7,0,0,1-2.27,1.05,9.54,9.54,0,0,1-2.62.36H6.82V23.71l1.05-.13a4,4,0,0,0,1-.23,1.36,1.36,0,0,0,.66-0.56,1.87,1.87,0,0,0,.2-0.91V6.58a2.21,2.21,0,0,0-.17-0.9A1.31,1.31,0,0,0,8.86,5a4.26,4.26,0,0,0-1-.35,7.35,7.35,0,0,0-.93-0.15V3.48h9.83a10.33,10.33,0,0,1,2.18.23,6.48,6.48,0,0,1,2,.8,4.31,4.31,0,0,1,1.46,1.43,4,4,0,0,1,.57,2.19,4.73,4.73,0,0,1-.41,2,4.38,4.38,0,0,1-1.14,1.51,6.64,6.64,0,0,1-1.58,1,9.27,9.27,0,0,1-1.93.64v0.14a11.35,11.35,0,0,1,2,.46A7.09,7.09,0,0,1,22,14.86Zm-3.63-3.21a3.72,3.72,0,0,0,.77-1.41,6.73,6.73,0,0,0,.22-1.82,3.82,3.82,0,0,0-1-2.76,4,4,0,0,0-3-1l-1.21,0-1.22,0v8.19h1.9a6.22,6.22,0,0,0,2.1-.32A3.28,3.28,0,0,0,18.33,11.65Zm2.08,6.8a4.12,4.12,0,0,0-1.27-3.11,5,5,0,0,0-3.62-1.22l-1.62,0-1,0v7.5a1.58,1.58,0,0,0,.77,1.43,4,4,0,0,0,2.13.48,4.39,4.39,0,0,0,3.42-1.31A5.54,5.54,0,0,0,20.41,18.45Z" style="fill:#231f20"/><path d="M37.59,11.89a2.49,2.49,0,0,1-.38,1.36,1.27,1.27,0,0,1-1.16.59,1.75,1.75,0,0,1-1.28-.44,1.32,1.32,0,0,1-.44-1,3.15,3.15,0,0,1,.05-0.6q0.05-.27.1-0.54a3.32,3.32,0,0,0-1.65.57,4.88,4.88,0,0,0-1.61,1.62v8.61a1.62,1.62,0,0,0,.2.86,1.22,1.22,0,0,0,.64.5,4,4,0,0,0,1,.23l1,0.11v1h-7.8v-1L27,23.73a2.73,2.73,0,0,0,.64-0.12,1.08,1.08,0,0,0,.62-0.47,1.69,1.69,0,0,0,.2-0.88V13.13a2.08,2.08,0,0,0-.22-0.91,1.82,1.82,0,0,0-.61-0.72,2.05,2.05,0,0,0-.68-0.26,6,6,0,0,0-.84-0.11v-1L31,9.8,31.23,10V12.1H31.3a6.73,6.73,0,0,1,2.07-1.85,4.38,4.38,0,0,1,2.09-.63,2,2,0,0,1,1.54.62A2.28,2.28,0,0,1,37.59,11.89Z" style="fill:#231f20"/><path d="M52.56,24.51q-0.71.26-1.24,0.41a4.26,4.26,0,0,1-1.21.16,2.94,2.94,0,0,1-1.87-.55,2.53,2.53,0,0,1-.89-1.6H47.26a7.32,7.32,0,0,1-2.09,1.65,5.87,5.87,0,0,1-2.69.57,3.81,3.81,0,0,1-2.74-1,3.52,3.52,0,0,1-1.07-2.67,4.55,4.55,0,0,1,.24-1.53,3.65,3.65,0,0,1,.72-1.22,3.6,3.6,0,0,1,1-.8,8.69,8.69,0,0,1,1.16-.56q0.68-.25,2.74-0.95a20.51,20.51,0,0,0,2.78-1.08V13.84a6.32,6.32,0,0,0-.08-0.75A3.15,3.15,0,0,0,46.86,12a3,3,0,0,0-.85-1,2.54,2.54,0,0,0-1.55-.41,3.48,3.48,0,0,0-1.28.23,2.33,2.33,0,0,0-.83.49,4.09,4.09,0,0,0,.14.89,4.59,4.59,0,0,1,.14,1.08,1.29,1.29,0,0,1-.47,1,1.86,1.86,0,0,1-1.31.44,1.23,1.23,0,0,1-1.1-.53,2.1,2.1,0,0,1,.14-2.51,4.89,4.89,0,0,1,1.27-1.13,6.9,6.9,0,0,1,1.64-.71,6.42,6.42,0,0,1,1.88-.29,12.31,12.31,0,0,1,2.2.17,4,4,0,0,1,1.7.74A3.46,3.46,0,0,1,49.71,12a6.44,6.44,0,0,1,.4,2.45q0,2.15,0,3.8t0,3.62a1.83,1.83,0,0,0,.2.93,1.64,1.64,0,0,0,.62.59,1.53,1.53,0,0,0,.71.15l1,0v1Zm-5.24-7.92Q46,17,45.08,17.32a9,9,0,0,0-1.79.9,4.07,4.07,0,0,0-1.19,1.21,3.08,3.08,0,0,0-.44,1.66,2.35,2.35,0,0,0,.65,1.83,2.39,2.39,0,0,0,1.66.59A3.4,3.4,0,0,0,45.87,23a5.46,5.46,0,0,0,1.37-1.23Z" style="fill:#231f20"/><path d="M70.06,24.78H62.83v-1l0.76-.06a2.86,2.86,0,0,0,.68-0.12,1.08,1.08,0,0,0,.62-0.47,1.69,1.69,0,0,0,.2-0.88V14.65a3.59,3.59,0,0,0-.74-2.43,2.32,2.32,0,0,0-1.81-.86,4.14,4.14,0,0,0-1.46.25,5.18,5.18,0,0,0-1.17.61,3.33,3.33,0,0,0-.79.74,6.65,6.65,0,0,0-.43.64v8.51a1.54,1.54,0,0,0,.21.84,1.35,1.35,0,0,0,.63.51,3,3,0,0,0,.68.23,6.08,6.08,0,0,0,.76.11v1H53.72v-1l0.71-.06a2.73,2.73,0,0,0,.64-0.12,1.08,1.08,0,0,0,.62-0.47,1.69,1.69,0,0,0,.2-0.88V13.13a2,2,0,0,0-.22-0.94,1.86,1.86,0,0,0-.61-0.7,2,2,0,0,0-.68-0.26,6,6,0,0,0-.84-0.11v-1l4.92-.33L58.69,10V12.1h0.08l0.9-.86a7.84,7.84,0,0,1,1-.82A5.38,5.38,0,0,1,62,9.82a5.76,5.76,0,0,1,1.73-.24,3.74,3.74,0,0,1,3.16,1.33,5.62,5.62,0,0,1,1,3.53v7.7a1.73,1.73,0,0,0,.18.85,1.19,1.19,0,0,0,.62.5,3.94,3.94,0,0,0,.62.21,4.8,4.8,0,0,0,.73.09v1Z" style="fill:#231f20"/><path d="M87.78,24.51l-5.18.33-0.23-.21V23.25l-0.12,0a6.14,6.14,0,0,1-1.93,1.43A5.36,5.36,0,0,1,78,25.2a5.58,5.58,0,0,1-2.44-.56,6.14,6.14,0,0,1-2-1.58,7.82,7.82,0,0,1-1.4-2.49,9.54,9.54,0,0,1-.52-3.21,8.41,8.41,0,0,1,.55-3,8,8,0,0,1,1.53-2.52,6.74,6.74,0,0,1,2.24-1.61,6.5,6.5,0,0,1,2.71-.6,7.94,7.94,0,0,1,2,.26,7.27,7.27,0,0,1,1.72.67V5.35a3,3,0,0,0-.21-1.15,1.76,1.76,0,0,0-.59-0.79A2.94,2.94,0,0,0,80.42,3a14.8,14.8,0,0,0-1.54-.19V1.88l6.06-.33,0.23,0.22V21.72a1.82,1.82,0,0,0,.2.89,1.75,1.75,0,0,0,.59.62,1.85,1.85,0,0,0,.83.22l1,0.06v1Zm-5.43-2.6V13.25A3.89,3.89,0,0,0,82,12.41a3.75,3.75,0,0,0-.67-0.83,3.84,3.84,0,0,0-1-.62,3.47,3.47,0,0,0-1.36-.25,3.1,3.1,0,0,0-1.66.47,4.43,4.43,0,0,0-1.34,1.34A6.9,6.9,0,0,0,75,14.66a11.93,11.93,0,0,0-.32,2.87,10.09,10.09,0,0,0,.24,2.29,6.05,6.05,0,0,0,.81,1.91,4.17,4.17,0,0,0,1.34,1.35,3.58,3.58,0,0,0,1.94.51,3.5,3.5,0,0,0,2-.53A6.42,6.42,0,0,0,82.35,21.91Z" style="fill:#231f20"/><path d="M87.79,29.61a1.79,1.79,0,0,1,.41-1.22,1.31,1.31,0,0,1,1-.47,1.77,1.77,0,0,1,.83.18,2.32,2.32,0,0,1,.62.46,3.89,3.89,0,0,1,.48.61q0.25,0.39.41,0.64a6,6,0,0,0,1.79-2.11,17.09,17.09,0,0,0,1.51-3q-1.43-3.56-2.58-6.36t-2.42-5.81a2.15,2.15,0,0,0-1-1.07A4,4,0,0,0,87.55,11V10H94.3V11a4.82,4.82,0,0,0-1.08.19,0.7,0.7,0,0,0-.63.4,1.14,1.14,0,0,0,.07.3q0.07,0.21.16,0.43,0.57,1.48,1.74,4.28t1.81,4.48l1.4-3.32q0.73-1.72,1.63-4.06l0.3-.79a2.45,2.45,0,0,0,.2-0.86,1,1,0,0,0-.68-0.73,4.07,4.07,0,0,0-1.3-.41V10h5.5v0.93a3.7,3.7,0,0,0-1.19.52,2.71,2.71,0,0,0-1.1,1.25Q99.34,16.83,98,20.23t-2.11,5a27.69,27.69,0,0,1-1.69,3.28,9.85,9.85,0,0,1-1.45,1.85,4.22,4.22,0,0,1-1.25.85,3.2,3.2,0,0,1-1.16.22,2.79,2.79,0,0,1-1.84-.56A1.63,1.63,0,0,1,87.79,29.61Z" style="fill:#231f20"/><path d="M165.29,24.78h-9.41V23.71q0.51,0,1.31-.11a3.31,3.31,0,0,0,1.1-.26A2,2,0,0,0,159,22.7a1.79,1.79,0,0,0,.22-0.92V6.29H159l-7.26,18.14H151L144,5.92h-0.2V18.63a12.72,12.72,0,0,0,.23,2.81,2.6,2.6,0,0,0,.71,1.38,3.45,3.45,0,0,0,1.37.6,8.22,8.22,0,0,0,1.35.3v1.07h-8.6V23.71a11,11,0,0,0,1.42-.23,2.75,2.75,0,0,0,1.15-.5,2.2,2.2,0,0,0,.72-1.29,15,15,0,0,0,.2-2.91V7.9a4.47,4.47,0,0,0-.23-1.55,2.42,2.42,0,0,0-.65-1,3,3,0,0,0-1.14-.6A5.76,5.76,0,0,0,139,4.55V3.48h7.26l6.1,16L157.61,6.1a13.19,13.19,0,0,0,.49-1.54,7.2,7.2,0,0,0,.22-1.07h6.94V4.55a7.72,7.72,0,0,0-1.07.14,7,7,0,0,0-1,.23,1.1,1.1,0,0,0-.69.6,2.3,2.3,0,0,0-.18.92V21.78a2,2,0,0,0,.18.89,1.53,1.53,0,0,0,.69.63,3.48,3.48,0,0,0,1,.28,8,8,0,0,0,1.1.14v1.07Z" style="fill:#231f20"/><path d="M179.37,21.3a7.58,7.58,0,0,1-2.49,2.82,6.27,6.27,0,0,1-3.59,1.05,7.29,7.29,0,0,1-3.13-.63A6.14,6.14,0,0,1,168,22.83a7.27,7.27,0,0,1-1.3-2.52,10.65,10.65,0,0,1-.43-3,9,9,0,0,1,.46-2.83,8,8,0,0,1,1.34-2.5,6.5,6.5,0,0,1,2.12-1.72A6.12,6.12,0,0,1,173,9.56a6.85,6.85,0,0,1,2.78.51,4.94,4.94,0,0,1,1.88,1.4,5.58,5.58,0,0,1,1,2,8.69,8.69,0,0,1,.34,2.48v1h-9.8a11.64,11.64,0,0,0,.28,2.65,6.34,6.34,0,0,0,.88,2.09A4.18,4.18,0,0,0,171.9,23a4.72,4.72,0,0,0,2.25.5,4.15,4.15,0,0,0,2.3-.63,6.19,6.19,0,0,0,1.87-2.26Zm-3.32-5.64a12.24,12.24,0,0,0-.14-1.8,5.51,5.51,0,0,0-.46-1.6,3,3,0,0,0-.95-1.12A2.57,2.57,0,0,0,173,10.7,3.22,3.22,0,0,0,170.35,12a6.1,6.1,0,0,0-1.13,3.64h6.84Z" style="fill:#231f20"/><path d="M187.71,24.78h-7.22v-1l0.74-.07a3.52,3.52,0,0,0,.65-0.11,1.11,1.11,0,0,0,.63-0.47,1.64,1.64,0,0,0,.21-0.88V5.11a2.27,2.27,0,0,0-.23-1,2,2,0,0,0-.61-0.74,3.09,3.09,0,0,0-1-.33,9,9,0,0,0-1.16-.18v-1l5.57-.33,0.21,0.23v20.3a1.71,1.71,0,0,0,.2.86,1.24,1.24,0,0,0,.63.52,3.47,3.47,0,0,0,.65.23,4.76,4.76,0,0,0,.73.11v1Z" style="fill:#231f20"/><path d="M203.88,10.9a3.73,3.73,0,0,0-1.28.49,2.88,2.88,0,0,0-1,1.3q-0.89,2-1.83,4.19t-2,4.58q-0.3.69-.64,1.64t-0.62,1.82h-1.17q-1.43-3.53-2.63-6.43t-2.49-6a2.24,2.24,0,0,0-1-1.07A3.91,3.91,0,0,0,187.9,11V10h6.85V11a5.46,5.46,0,0,0-1.13.19,0.7,0.7,0,0,0-.68.47,1,1,0,0,0,.08.23q0.08,0.19.15,0.43,0.61,1.53,1.74,4.27T196.73,21l1.36-3.21q0.82-1.92,1.76-4.29l0.29-.76a2,2,0,0,0,.14-0.71,0.59,0.59,0,0,0-.25-0.46,2.51,2.51,0,0,0-.59-0.35,3.83,3.83,0,0,0-.68-0.22l-0.54-.11V10h5.66V10.9Z" style="fill:#231f20"/><path d="M213.24,24.78h-7.14v-1l0.71-.06a2.73,2.73,0,0,0,.64-0.12,1.08,1.08,0,0,0,.62-0.47,1.69,1.69,0,0,0,.2-0.88V13.13a1.8,1.8,0,0,0-.22-0.88,1.94,1.94,0,0,0-.61-0.67,2.78,2.78,0,0,0-.83-0.31,6.14,6.14,0,0,0-1-.16v-1l5.22-.33L211.06,10V22.08a1.71,1.71,0,0,0,.2.87,1.19,1.19,0,0,0,.63.51,5.07,5.07,0,0,0,.64.22,3.93,3.93,0,0,0,.7.11v1ZM211.36,4a2.19,2.19,0,0,1-.56,1.49,1.78,1.78,0,0,1-1.39.64,1.75,1.75,0,0,1-1.33-.61,2,2,0,0,1-.56-1.39,2.07,2.07,0,0,1,.56-1.44A1.74,1.74,0,0,1,209.41,2a1.85,1.85,0,0,1,1.4.58A1.89,1.89,0,0,1,211.36,4Z" style="fill:#231f20"/><path d="M221.69,24.78h-7.22v-1l0.74-.07a3.52,3.52,0,0,0,.65-0.11,1.11,1.11,0,0,0,.63-0.47,1.64,1.64,0,0,0,.21-0.88V5.11a2.27,2.27,0,0,0-.23-1,2,2,0,0,0-.61-0.74,3.09,3.09,0,0,0-1-.33,9,9,0,0,0-1.16-.18v-1l5.57-.33,0.21,0.23v20.3a1.71,1.71,0,0,0,.2.86,1.24,1.24,0,0,0,.63.52,3.47,3.47,0,0,0,.65.23,4.76,4.76,0,0,0,.73.11v1Z" style="fill:#231f20"/><path d="M230.18,24.78H223v-1l0.74-.07a3.52,3.52,0,0,0,.65-0.11,1.11,1.11,0,0,0,.63-0.47,1.64,1.64,0,0,0,.21-0.88V5.11a2.27,2.27,0,0,0-.23-1,2,2,0,0,0-.61-0.74,3.09,3.09,0,0,0-1-.33,9,9,0,0,0-1.16-.18v-1l5.57-.33L228,1.77v20.3a1.71,1.71,0,0,0,.2.86,1.24,1.24,0,0,0,.63.52,3.47,3.47,0,0,0,.65.23,4.76,4.76,0,0,0,.73.11v1Z" style="fill:#231f20"/><path d="M244.88,21.3a7.58,7.58,0,0,1-2.49,2.82,6.27,6.27,0,0,1-3.59,1.05,7.29,7.29,0,0,1-3.13-.63,6.14,6.14,0,0,1-2.21-1.71,7.27,7.27,0,0,1-1.3-2.52,10.65,10.65,0,0,1-.43-3,9,9,0,0,1,.46-2.83,8,8,0,0,1,1.34-2.5,6.5,6.5,0,0,1,2.12-1.72,6.12,6.12,0,0,1,2.84-.65,6.85,6.85,0,0,1,2.78.51,4.94,4.94,0,0,1,1.88,1.4,5.58,5.58,0,0,1,1,2,8.69,8.69,0,0,1,.34,2.48v1h-9.8a11.64,11.64,0,0,0,.28,2.65,6.34,6.34,0,0,0,.88,2.09A4.18,4.18,0,0,0,237.41,23a4.72,4.72,0,0,0,2.25.5,4.15,4.15,0,0,0,2.3-.63,6.19,6.19,0,0,0,1.87-2.26Zm-3.32-5.64a12.24,12.24,0,0,0-.14-1.8,5.51,5.51,0,0,0-.46-1.6,3,3,0,0,0-.95-1.12,2.57,2.57,0,0,0-1.55-.43A3.22,3.22,0,0,0,235.85,12a6.1,6.1,0,0,0-1.13,3.64h6.84Z" style="fill:#231f20"/><path d="M119.65,2.31a7.87,7.87,0,0,1,1.58,1.63,9.21,9.21,0,0,1,2.3-2.08,6.18,6.18,0,0,1,5.76-.52,8.25,8.25,0,0,1,4,3.36,9.86,9.86,0,0,1,1.45,5.22,14,14,0,0,1-2.3,6.33,31.89,31.89,0,0,1-7.83,7.52c-1.59,1.12-3.36,2.29-3.36,2.29s-2-1.49-3.45-2.7a69.08,69.08,0,0,1-7.57-7.11,10.39,10.39,0,0,1-2.14-8.42,9.28,9.28,0,0,1,3.62-5.62A7.52,7.52,0,0,1,116.21,1a7.82,7.82,0,0,1,3.44,1.26" style="fill:#fae4e1"/></svg>